<svg xmlns="http://www.w3.org/2000/svg" xmlns:xlink="http://www.w3.org/1999/xlink" width="1080" zoomAndPan="magnify" viewBox="0 0 810 809.999993" height="1080" preserveAspectRatio="xMidYMid meet" version="1.0"><defs><g/><clipPath id="33bb053ec3"><path d="M 379 336.164062 L 461 336.164062 L 461 442 L 379 442 Z M 379 336.164062 " clip-rule="nonzero"/></clipPath></defs><g clip-path="url(#33bb053ec3)"><path fill="#cb6ce6" d="M 426.554688 336.164062 L 418.453125 336.164062 L 418.453125 408.683594 C 413.277344 405.820312 406.207031 404.890625 398.941406 406.644531 C 386.179688 409.699219 377.671875 419.859375 379.945312 429.320312 C 382.222656 438.789062 394.417969 443.960938 407.179688 440.890625 C 418.859375 438.101562 426.960938 429.375 426.535156 420.664062 L 426.554688 420.664062 L 426.554688 361.355469 C 439.804688 371.132812 451.453125 369.832031 453.601562 393.109375 C 479.332031 353.988281 427.636719 355.019531 426.554688 336.164062 Z M 426.554688 336.164062 " fill-opacity="1" fill-rule="nonzero"/></g><g fill="#ffffff" fill-opacity="1"><g transform="translate(2.871097, 443.999998)"><g><path d="M 41.394531 -39.949219 C 74.445312 -39.949219 93.695312 -57.597656 93.695312 -77.8125 C 93.695312 -96.585938 71.394531 -109.902344 41.394531 -109.902344 C 25.511719 -109.902344 3.691406 -102.679688 3.691406 -75.085938 L 3.691406 0 L 38.828125 0 L 38.828125 -60.644531 C 38.828125 -81.34375 19.253906 -80.378906 15.402344 -89.847656 C 13.796875 -93.855469 14.921875 -100.433594 25.671875 -100.433594 C 34.171875 -100.433594 45.726562 -93.375 52.304688 -83.429688 C 65.621094 -63.054688 56.796875 -43.160156 41.394531 -43.160156 Z M 41.394531 -39.949219 "/></g></g></g><g fill="#ffffff" fill-opacity="1"><g transform="translate(100.251925, 443.999998)"><g><path d="M 71.714844 -8.34375 C 44.441406 -8.34375 38.828125 -27.113281 38.828125 -56.476562 L 38.828125 -108.777344 L 3.851562 -108.777344 L 3.851562 -41.875 C 3.851562 -17.328125 25.992188 1.125 55.992188 1.125 C 71.878906 1.125 93.695312 -6.257812 93.695312 -33.851562 L 93.695312 -108.777344 L 58.722656 -108.777344 L 58.722656 -48.132812 C 58.722656 -27.433594 78.132812 -28.558594 81.984375 -18.933594 C 83.589844 -14.921875 82.464844 -8.34375 71.714844 -8.34375 Z M 71.714844 -8.34375 "/></g></g></g><g fill="#ffffff" fill-opacity="1"><g transform="translate(197.793176, 443.999998)"><g><path d="M 41.074219 -52.464844 C 70.914062 -52.464844 42.835938 -24.546875 59.683594 -7.699219 C 76.53125 9.144531 99.953125 -3.046875 110.703125 -17.167969 L 108.136719 -19.734375 C 103.164062 -14.601562 97.707031 -12.675781 92.09375 -18.289062 C 86.476562 -23.90625 88.242188 -37.0625 77.011719 -48.292969 C 73.160156 -51.984375 69.46875 -54.230469 65.621094 -55.351562 C 82.625 -59.203125 93.695312 -67.707031 93.695312 -81.023438 C 93.695312 -99.792969 71.554688 -109.902344 41.554688 -109.902344 C 25.671875 -109.902344 3.691406 -102.679688 3.691406 -75.085938 L 3.691406 0 L 38.828125 0 L 38.828125 -60.644531 C 38.828125 -81.34375 19.414062 -80.378906 15.5625 -89.847656 C 13.957031 -93.855469 15.082031 -100.433594 25.832031 -100.433594 C 34.171875 -100.433594 44.921875 -95.941406 52.304688 -86.636719 C 67.222656 -68.1875 57.757812 -56.152344 41.074219 -56.152344 Z M 41.074219 -52.464844 "/></g></g></g><g fill="#ffffff" fill-opacity="1"><g transform="translate(294.371875, 443.999998)"><g><path d="M 41.394531 -39.949219 C 74.445312 -39.949219 93.695312 -57.597656 93.695312 -77.8125 C 93.695312 -96.585938 71.394531 -109.902344 41.394531 -109.902344 C 25.511719 -109.902344 3.691406 -102.679688 3.691406 -75.085938 L 3.691406 0 L 38.828125 0 L 38.828125 -60.644531 C 38.828125 -81.34375 19.253906 -80.378906 15.402344 -89.847656 C 13.796875 -93.855469 14.921875 -100.433594 25.671875 -100.433594 C 34.171875 -100.433594 45.726562 -93.375 52.304688 -83.429688 C 65.621094 -63.054688 56.796875 -43.160156 41.394531 -43.160156 Z M 41.394531 -39.949219 "/></g></g></g><g fill="#ffffff" fill-opacity="1"><g transform="translate(476.47264, 443.999998)"><g><path d="M 88.082031 -42.195312 L 84.070312 -42.355469 C 84.871094 -37.222656 80.703125 -28.078125 72.679688 -28.078125 C 64.816406 -28.078125 55.671875 -40.589844 39.789062 -40.589844 C 28.71875 -40.589844 15.5625 -35.296875 8.503906 -21.980469 C 13.636719 -47.007812 38.828125 -39.949219 38.828125 -58.5625 L 38.828125 -108.777344 L 3.691406 -108.777344 L 3.691406 0 L 7.699219 0 C 7.699219 -7.699219 9.625 -16.042969 20.855469 -16.042969 C 31.925781 -16.042969 35.617188 1.125 59.523438 1.125 C 90.167969 1.125 91.128906 -27.757812 88.082031 -42.195312 Z M 88.082031 -42.195312 "/></g></g></g><g fill="#ffffff" fill-opacity="1"><g transform="translate(568.559293, 443.999998)"><g><path d="M 38.828125 0 L 38.828125 -108.777344 L 3.691406 -108.777344 L 3.691406 0 Z M 38.828125 0 "/></g></g></g><g fill="#ffffff" fill-opacity="1"><g transform="translate(611.073165, 443.999998)"><g><path d="M 2.886719 -76.851562 C 2.886719 -55.671875 18.933594 -47.8125 40.914062 -41.394531 C 68.027344 -33.371094 83.269531 -20.535156 75.726562 -13.796875 C 62.25 -1.925781 53.90625 -39.628906 30.003906 -39.628906 C 6.257812 -39.628906 1.285156 -17.488281 3.691406 0.160156 L 7.21875 0.160156 C 7.21875 -6.898438 8.824219 -11.390625 16.847656 -11.390625 C 24.867188 -11.390625 35.296875 1.125 51.179688 1.125 C 71.878906 1.125 87.601562 -14.761719 87.601562 -32.730469 C 87.601562 -55.03125 59.523438 -64.65625 46.046875 -68.507812 C 18.933594 -76.046875 6.417969 -88.402344 14.117188 -94.820312 C 28.238281 -106.53125 33.691406 -69.148438 57.597656 -69.148438 C 81.503906 -69.148438 86.316406 -91.289062 84.070312 -108.9375 L 80.378906 -108.9375 C 80.378906 -101.878906 78.777344 -97.386719 70.753906 -97.386719 C 62.890625 -97.386719 54.550781 -109.742188 38.667969 -109.742188 C 18.289062 -109.742188 2.886719 -94.5 2.886719 -76.851562 Z M 2.886719 -76.851562 "/></g></g></g><g fill="#ffffff" fill-opacity="1"><g transform="translate(701.555529, 443.999998)"><g><path d="M 13.476562 -65.136719 L 16.363281 -67.867188 C 12.195312 -70.914062 12.675781 -80.539062 20.535156 -80.539062 C 24.066406 -80.539062 29.039062 -77.972656 35.296875 -75.246094 L 35.296875 0 L 70.433594 0 L 70.433594 -48.613281 C 70.433594 -66.261719 47.8125 -53.90625 41.074219 -72.839844 C 47.652344 -70.273438 55.351562 -68.1875 64.335938 -68.1875 C 80.21875 -68.1875 102.679688 -79.097656 102.679688 -108.617188 L 98.671875 -108.617188 C 98.671875 -100.917969 93.375 -92.734375 82.304688 -92.734375 C 71.234375 -92.734375 55.511719 -109.742188 31.605469 -109.742188 C 7.699219 -109.742188 2.886719 -92.253906 2.886719 -83.910156 C 2.886719 -75.726562 7.539062 -70.113281 13.476562 -65.136719 Z M 13.476562 -65.136719 "/></g></g></g></svg>